<svg width="56" height="56" viewBox="0 0 56 56" fill="none" xmlns="http://www.w3.org/2000/svg">
<g id="figma">
<path id="Vector" d="M18.6667 56C23.8187 56 28 51.8187 28 46.6667V37.3334H18.6667C13.5147 37.3334 9.33337 41.5147 9.33337 46.6667C9.33337 51.8187 13.5147 56 18.6667 56Z" fill="#E65100"/>
<path id="Vector_2" d="M9.33337 28C9.33337 22.848 13.5147 18.6666 18.6667 18.6666H28V37.3333H18.6667C13.5147 37.3333 9.33337 33.152 9.33337 28Z" fill="#E65100"/>
<path id="Vector_3" d="M9.33337 9.33333C9.33337 4.18133 13.5147 0 18.6667 0H28V18.6667H18.6667C13.5147 18.6667 9.33337 14.4853 9.33337 9.33333Z" fill="#E65100"/>
<path id="Vector_4" d="M28 0H37.3333C42.4853 0 46.6667 4.18133 46.6667 9.33333C46.6667 14.4853 42.4853 18.6667 37.3333 18.6667H28V0Z" fill="#E65100"/>
<path id="Vector_5" d="M46.6667 28C46.6667 33.152 42.4853 37.3333 37.3333 37.3333C32.1813 37.3333 28 33.152 28 28C28 22.848 32.1813 18.6666 37.3333 18.6666C42.4853 18.6666 46.6667 22.848 46.6667 28Z" fill="#E65100"/>
</g>
</svg>
