<svg width="56" height="56" viewBox="0 0 56 56" fill="none" xmlns="http://www.w3.org/2000/svg">
<g id="git">
<path id="Vector" d="M54.5746 25.5403L30.4609 1.42794C29.0732 0.0393183 26.8209 0.0393183 25.431 1.42794L20.4247 6.43557L26.7763 12.7872C28.2529 12.2889 29.9451 12.6231 31.1216 13.7996C32.3041 14.9834 32.6362 16.6901 32.1247 18.1715L38.2462 24.2939C39.7272 23.7833 41.4365 24.1132 42.6186 25.2979C44.2724 26.9504 44.2724 29.6292 42.6186 31.2825C40.9649 32.9363 38.2869 32.9363 36.6323 31.2825C35.3889 30.0383 35.0814 28.2117 35.7114 26.6796L30.0029 20.9706L30.002 35.9948C30.4054 36.1939 30.7856 36.4599 31.1216 36.7946C32.7749 38.447 32.7749 41.1249 31.1216 42.7809C29.4682 44.4333 35.6516 38.447 34 36.7946C32.3471 35.1391 32.8476 34.6529 34.5 33C34.9086 32.5918 49 35.2979 44 25.2979L34 15.5C33.5625 15.2935 25.4095 20.4108 25 20C26.7763 20.9706 36.3577 18.5382 37 17L20.4247 6.43557L1.41268 25.4288C0.0236138 26.8187 0.0323638 29.0709 1.42143 30.46L25.5391 54.5724C26.9272 55.961 29.1812 55.961 30.5716 54.5724L54.5729 30.572C55.9619 29.1825 55.9632 26.9289 54.5746 25.5403Z" fill="white"/>
<path id="Vector_2" d="M54.5746 25.5403L30.4609 1.42794C29.0732 0.0393184 26.8209 0.0393184 25.431 1.42794L20.4247 6.43557L26.7763 12.7872C28.2529 12.2889 29.9451 12.6231 31.1216 13.7996C32.3041 14.9834 32.6362 16.6901 32.1247 18.1715L38.2462 24.2939C39.7272 23.7833 41.4365 24.1132 42.6186 25.2979C44.2724 26.9504 44.2724 29.6292 42.6186 31.2825C40.9649 32.9363 38.2869 32.9363 36.6323 31.2825C35.3889 30.0383 35.0814 28.2117 35.7114 26.6796L30.0029 20.9706L30.002 35.9948C30.4054 36.1939 30.7856 36.4599 31.1216 36.7946C32.7749 38.447 32.7749 41.1249 31.1216 42.7809C29.4682 44.4333 26.7886 44.4333 25.137 42.7809C23.4841 41.1254 23.3485 38.4474 25.0009 36.7946C25.4096 36.3864 25.8125 36.0779 26.25 35.8714V20.7081C25.8125 20.5016 25.41 20.1954 25.0005 19.7846C23.7488 18.5333 23.5147 16.6958 24.157 15.1576L17.9301 8.89563L1.41268 25.4288C0.0236138 26.8187 0.0323638 29.0709 1.42143 30.46L25.5391 54.5724C26.9272 55.961 29.1812 55.961 30.5716 54.5724L54.5729 30.572C55.9619 29.1825 55.9632 26.9289 54.5746 25.5403Z" fill="#F34F29"/>
</g>
</svg>
