<svg width="56" height="56" viewBox="0 0 56 56" fill="none" xmlns="http://www.w3.org/2000/svg">
<g id="github">
<circle id="Ellipse 1" cx="28" cy="29" r="23" fill="white"/>
<path id="Vector" d="M28 5.24231C22.4595 5.24254 17.0998 7.21424 12.8799 10.8046C8.66011 14.395 5.85553 19.3698 4.968 24.8388C4.08048 30.3078 5.16793 35.9142 8.03579 40.6547C10.9036 45.3953 15.3648 48.9608 20.6209 50.7131C21.7876 50.9173 22.2251 50.2174 22.2251 49.6048C22.2251 49.0506 22.1959 47.2131 22.1959 45.259C16.3334 46.3381 14.8167 43.8299 14.35 42.5174C13.8322 41.2409 13.0113 40.1097 11.9584 39.2215C11.1417 38.784 9.97502 37.7048 11.9292 37.6757C12.6753 37.7567 13.391 38.0163 14.0155 38.4326C14.64 38.8489 15.1549 39.4097 15.5167 40.0673C15.8358 40.6406 16.2649 41.1453 16.7795 41.5524C17.294 41.9596 17.8838 42.2613 18.5151 42.4401C19.1464 42.6189 19.8068 42.6714 20.4584 42.5946C21.11 42.5177 21.7401 42.3131 22.3125 41.9923C22.4135 40.8061 22.9421 39.697 23.8 38.8715C18.6084 38.2882 13.1834 36.2756 13.1834 27.3507C13.1506 25.0317 14.0063 22.7881 15.575 21.0799C14.8617 19.0644 14.9451 16.8525 15.8084 14.8965C15.8084 14.8965 17.7625 14.284 22.225 17.2882C26.043 16.2382 30.0737 16.2382 33.8917 17.2882C38.3541 14.2549 40.3084 14.8965 40.3084 14.8965C41.1717 16.8525 41.2551 19.0644 40.5417 21.0799C42.1151 22.7851 42.9716 25.0308 42.9334 27.3507C42.9334 36.3048 37.4791 38.2882 32.2875 38.8715C32.8444 39.4359 33.2732 40.1136 33.545 40.8584C33.8168 41.6032 33.9251 42.3978 33.8625 43.1882C33.8625 46.3091 33.8333 48.8173 33.8333 49.6049C33.8333 50.2174 34.2708 50.9465 35.4375 50.7132C40.6844 48.9466 45.1327 45.3728 47.9883 40.6298C50.844 35.8867 51.9211 30.2832 51.0274 24.8195C50.1337 19.3558 47.3274 14.3875 43.1094 10.8015C38.8915 7.21549 33.5363 5.24519 28 5.24231Z" fill="#E65100"/>
</g>
</svg>
