<svg width="56" height="56" viewBox="0 0 56 56" fill="none" xmlns="http://www.w3.org/2000/svg">
<g id="Javascript" clip-path="url(#clip0_378_103)">
<path id="Vector" d="M0 0H56V56H0V0Z" fill="#E65100"/>
<path id="Vector_2" d="M14.7246 46.7976L19.0099 44.2041C19.8368 45.6699 20.5888 46.9103 22.3929 46.9103C24.1221 46.9103 25.2126 46.2339 25.2126 43.6028V25.7094H30.475V43.6771C30.475 49.1277 27.28 51.6088 22.6184 51.6088C18.4086 51.6088 15.9649 49.4285 14.7244 46.7972M33.3334 46.2337L37.6183 43.7528C38.7464 45.5949 40.2125 46.9481 42.806 46.9481C44.9867 46.9481 46.3771 45.8579 46.3771 44.3542C46.3771 42.5499 44.9486 41.9107 42.5428 40.8585L41.2275 40.2942C37.4306 38.6783 34.9121 36.6483 34.9121 32.3629C34.9121 28.4158 37.9193 25.4084 42.6183 25.4084C45.9638 25.4084 48.3696 26.5739 50.0986 29.6187L46.001 32.2503C45.0987 30.6339 44.1217 29.995 42.6181 29.995C41.0767 29.995 40.0994 30.9724 40.0994 32.2503C40.0994 33.829 41.0767 34.4684 43.3321 35.4458L44.6476 36.0095C49.1211 37.9269 51.6395 39.8814 51.6395 44.2791C51.6395 49.0159 47.9181 51.6094 42.9186 51.6094C38.032 51.6094 34.8743 49.2789 33.3332 46.2339" fill="white"/>
</g>
<defs>
<clipPath id="clip0_378_103">
<rect width="56" height="56" fill="white"/>
</clipPath>
</defs>
</svg>
