<svg width="56" height="56" viewBox="0 0 56 56" fill="none" xmlns="http://www.w3.org/2000/svg">
<g id="Html">
<path id="Vector" d="M7.80504 50.4023L3.31104 0L52.689 0L48.1904 50.3953L27.9697 56L7.80504 50.4023Z" fill="#E44D26"/>
<path id="Vector_2" d="M28.0001 22.8153H19.8218L19.2548 16.485H28.0001V10.3016H12.4998L12.6468 11.9606L14.1658 28.994H28.0001V22.8153ZM28.0001 38.8686L27.9721 38.8756L21.0888 37.016L20.6478 32.0856H14.4434L15.3091 41.7923L27.9721 45.3086L28.0001 45.2993V38.8686Z" fill="#EBEBEB"/>
<path id="Vector_3" d="M27.979 22.8153V28.9963H35.5927L34.874 37.0136L27.979 38.8733V45.304L40.6513 41.7923L40.7447 40.747L42.1983 24.4743L42.3477 22.813H40.6817L27.979 22.8153ZM27.979 10.3016V16.485H42.91L43.0337 15.0943L43.316 11.9606L43.463 10.3016H27.979Z" fill="white"/>
</g>
</svg>
