<svg width="57" height="56" viewBox="0 0 57 56" fill="none" xmlns="http://www.w3.org/2000/svg">
<g id="java">
<g id="Group">
<path id="Vector" fill-rule="evenodd" clip-rule="evenodd" d="M18.5364 43.308C18.5364 43.308 15.6323 44.5521 20.6002 44.9714C26.6185 45.4773 29.6895 45.4043 36.3195 44.4792C36.3195 44.4792 38.062 45.2858 40.4965 45.9831C25.6361 50.6862 6.85817 45.7142 18.5364 43.308Z" fill="#E65100"/>
<path id="Vector_2" fill-rule="evenodd" clip-rule="evenodd" d="M16.7198 37.1783C16.7198 37.1783 13.4635 38.9557 18.4376 39.3339C24.8637 39.8216 29.9428 39.8626 38.7231 38.6139C38.7231 38.6139 39.9404 39.5208 41.8497 40.0175C23.8751 43.8958 3.85519 40.3229 16.7198 37.1783Z" fill="#E65100"/>
<path id="Vector_3" fill-rule="evenodd" clip-rule="evenodd" d="M32.0314 26.7787C35.6955 29.8868 31.0675 32.6849 31.0675 32.6849C31.0675 32.6849 40.3668 29.1439 36.0971 24.7097C32.1055 20.5762 29.0469 18.5209 45.6066 11.4388C45.6066 11.4388 19.6178 16.224 32.0314 26.7787Z" fill="white"/>
<path id="Vector_4" fill-rule="evenodd" clip-rule="evenodd" d="M51.6866 47.8424C51.6866 47.8424 53.8307 49.1458 49.3201 50.1575C40.7437 52.0761 13.6118 52.6549 6.07349 50.235C3.3671 49.3645 8.44621 48.1614 10.0404 47.9062C11.7087 47.6373 12.6603 47.6875 12.6603 47.6875C9.64493 46.1243 -6.81584 50.7591 4.30013 52.0898C34.608 55.7128 59.5463 50.4583 51.6866 47.8424Z" fill="#E65100"/>
<path id="Vector_5" fill-rule="evenodd" clip-rule="evenodd" d="M19.9329 30.8255C19.9329 30.8255 6.13527 33.2408 15.0453 34.1204C18.8083 34.4941 26.3096 34.4075 33.298 33.9746C39.0074 33.6191 44.7415 32.8626 44.7415 32.8626C44.7415 32.8626 42.7271 33.5006 41.2689 34.2343C27.255 36.9505 0.184922 35.6881 7.9766 32.9082C14.5696 30.5566 19.9329 30.8255 19.9329 30.8255Z" fill="#E65100"/>
<path id="Vector_6" fill-rule="evenodd" clip-rule="evenodd" d="M44.6859 41.0293C58.9284 35.5697 52.3417 30.3242 47.7445 31.0306C46.6199 31.2038 46.1133 31.3542 46.1133 31.3542C46.1133 31.3542 46.5334 30.8711 47.3305 30.6615C56.426 28.3053 63.4206 37.6159 44.3955 41.3073C44.4017 41.3073 44.618 41.1615 44.6859 41.0293Z" fill="#E65100"/>
<path id="Vector_7" fill-rule="evenodd" clip-rule="evenodd" d="M36.0971 0C36.0971 0 43.9876 5.81966 28.6144 14.7702C16.2873 21.9479 25.8029 26.0449 28.6082 30.7207C21.4159 25.9355 16.1328 21.7201 19.6734 17.7962C24.8761 12.0358 39.2793 9.24675 36.0971 0Z" fill="white"/>
<path id="Vector_8" fill-rule="evenodd" clip-rule="evenodd" d="M21.3293 55.8223C35.0034 56.4694 55.9995 55.4623 56.5 50.6908C56.5 50.6908 55.5423 52.5 45.1987 53.9356C33.5266 55.5534 19.1358 55.3666 10.5964 54.3275C10.5964 54.3321 12.3451 55.3985 21.3293 55.8223Z" fill="#E65100"/>
</g>
</g>
</svg>
