<svg width="56" height="56" viewBox="0 0 56 56" fill="none" xmlns="http://www.w3.org/2000/svg">
<g id="sass">
<g id="Group">
<g id="Vector">
<path fill-rule="evenodd" clip-rule="evenodd" d="M48.207 32.1554C46.2474 32.1676 44.5521 32.7999 43.1302 33.73C42.6061 32.3439 42.082 31.134 41.9909 30.2281C41.8906 29.1764 41.7721 28.538 41.8906 27.2795C42.0091 26.0271 42.556 24.2457 42.556 24.0998C42.5468 23.9661 42.4375 23.3277 41.3073 23.3095C40.1816 23.2973 39.2064 23.6013 39.097 23.9965C38.9876 24.3916 38.7689 25.2975 38.6276 26.2277C38.4316 27.6017 36.3763 32.4594 35.205 35.0129C34.8222 34.0219 34.4941 33.1464 34.4303 32.4472C34.3301 31.3954 34.2116 30.7571 34.33 29.4986C34.4485 28.2462 34.9954 26.4648 34.9954 26.3189C34.9863 26.1852 34.8769 25.5468 33.7467 25.5286C32.6211 25.5164 31.6458 25.8204 31.5364 26.2156C31.4271 26.6107 31.3086 27.5409 31.067 28.4468C30.8392 29.3527 28.1048 37.463 27.3939 39.5787C27.0338 40.6609 26.7148 41.5181 26.4869 42.1018C26.2591 42.6854 26.4778 42.1443 26.455 42.2051C26.2591 42.7037 26.1497 42.9773 26.1497 42.9773V42.9894C25.9948 43.3542 25.8307 43.7068 25.7578 43.7068C25.7031 43.7068 25.5937 42.728 25.7806 41.3844C26.1862 38.5695 27.1705 34.1739 27.1569 34.0158C27.1569 33.9428 27.3437 33.1707 26.5234 32.7755C25.7259 32.3804 25.4388 33.037 25.375 33.037C25.3112 33.037 25.2565 33.268 25.2565 33.268C25.2565 33.268 26.1406 28.3191 23.5612 28.3191C21.9433 28.3191 19.7103 30.6659 18.6074 32.812C17.9056 33.3227 16.4199 34.4049 14.8431 35.554C14.2415 35.9917 13.6172 36.4598 13.0293 36.8793L12.9108 36.703C9.77992 32.2709 3.99216 29.1216 4.23369 23.1392C4.32028 20.9627 4.88994 15.2296 15.3489 8.28656C23.9121 2.59597 30.7708 4.15845 31.9648 7.62995C33.6601 12.591 28.3008 21.8139 19.3958 23.1392C16.0052 23.6499 14.2233 21.899 13.7721 21.2424C13.3027 20.5554 13.2343 20.525 13.0612 20.6587C12.7786 20.8654 12.9518 21.4734 13.0612 21.8382C13.3255 22.7562 14.4192 24.3916 16.2786 25.2063C17.9101 25.9237 21.8886 26.3128 26.7011 23.8323C32.0924 21.0478 36.3034 13.3084 35.0683 6.84567C33.8105 0.273528 25.6302 -1.89084 17.8965 1.77521C13.2936 3.9639 8.30336 7.38068 4.71677 11.8614C0.451142 17.169 -0.227894 21.8078 0.0546577 23.735C1.04815 30.6112 8.14841 35.0858 10.9922 38.3992C10.8509 38.5026 10.7187 38.606 10.6002 38.6911C9.17836 39.6273 3.76429 43.4028 2.40622 47.4033C0.87497 51.9266 2.64776 55.1853 3.8281 55.623C7.48304 56.9788 11.2246 54.5408 13.248 50.5282C15.2623 46.5156 15.0208 41.3053 14.0911 38.9282L14.0592 38.8431L15.1758 37.9676C15.8958 37.3961 16.6067 36.8732 17.2311 36.4233C16.8802 37.694 16.6295 39.1957 16.4974 41.3844C16.3424 43.95 17.1308 47.2817 18.1699 48.5949C18.6302 49.1664 19.1771 49.1785 19.5143 49.1785C20.7174 49.1785 21.2643 47.8532 21.8659 46.2603C22.6087 44.3209 23.2649 42.0714 23.2649 42.0714C23.2649 42.0714 22.4446 48.1571 24.6868 48.1571C25.5071 48.1571 26.3274 46.7406 26.7011 46.011V46.0232C26.7011 46.0232 26.7239 45.9806 26.7649 45.8773C26.8105 45.7861 26.8561 45.6949 26.8971 45.5976V45.5672C27.2252 44.8072 27.959 43.0745 29.0527 40.1988C30.4655 36.4902 31.819 31.8514 31.819 31.8514C31.819 31.8514 31.9511 32.9883 32.3567 34.8548C32.5983 35.9613 33.1224 37.1772 33.528 38.3567C33.1998 38.9707 33.0039 39.3173 33.0039 39.3173L33.013 39.3294C32.7487 39.7976 32.457 40.29 32.1471 40.7886C31.0306 42.5699 29.6953 44.5944 29.5221 45.1781C29.3125 45.8651 29.358 46.3758 29.7636 46.7831C30.0599 47.075 30.584 47.1358 31.1399 47.075C32.1471 46.9898 32.8444 46.6494 33.1953 46.4488C33.7422 46.1873 34.3665 45.7921 34.9681 45.2085C36.0618 44.1263 36.7272 42.5942 36.6634 40.5515C36.6315 39.4267 36.358 38.3202 36.0162 37.2684C36.1165 37.08 36.2122 36.8915 36.3125 36.6848C38.0397 33.3166 39.375 29.608 39.375 29.608C39.375 29.608 39.5071 30.7449 39.9127 32.6114C40.1224 33.5598 40.5371 34.5934 40.9062 35.6148C39.2884 37.3779 38.2721 39.4206 37.9212 40.7642C37.2741 43.2448 37.7799 44.3695 38.7324 44.6309C39.1608 44.7464 39.7715 44.485 40.2317 44.2236C40.8014 43.9743 41.4896 43.5548 42.123 42.9225C43.2168 41.8404 44.2649 40.3387 44.2103 38.3141C44.1784 37.3779 43.9915 36.4598 43.7409 35.5844C45.1172 34.8244 46.9036 34.3867 49.164 34.7514C54.0312 35.5114 54.9928 39.5665 54.8105 41.2567C54.6237 42.9469 53.6074 43.8831 53.2702 44.175C52.9329 44.4546 52.8235 44.5519 52.8554 44.7586C52.901 45.0626 53.0514 45.0504 53.3476 44.9896C53.7532 44.9045 55.9088 43.6035 55.9954 40.4785C56.1276 36.4902 53.2702 32.1129 48.207 32.1554ZM10.6686 49.0387C9.05987 51.3855 6.79489 52.2792 5.8333 51.5192C4.79424 50.7167 5.19984 47.2574 7.1777 44.7647C8.38083 43.2448 9.94398 41.8464 10.9739 40.9831C11.2018 40.7946 11.5527 40.515 11.9674 40.1806C12.0312 40.1198 12.0768 40.0955 12.0768 40.0955C12.1543 40.0347 12.2409 39.9617 12.3274 39.8888C13.0612 43.4515 12.3639 46.5704 10.6686 49.0387ZM22.4264 38.3749C21.8704 40.1988 20.6855 44.8863 19.9746 44.6188C19.3639 44.3999 18.9902 40.8554 19.8561 37.3535C20.2936 35.5904 21.2233 33.4869 21.7702 32.6722C22.6543 31.359 23.6204 30.9212 23.8574 31.4623C24.1445 32.1554 22.7773 37.2319 22.4264 38.3749ZM32.1289 44.558C31.8873 44.716 31.6686 44.8376 31.5729 44.7464C31.4954 44.6856 31.6731 44.4668 31.6731 44.4668C31.6731 44.4668 32.8854 42.728 33.3685 41.9255C33.6419 41.4573 33.97 40.9162 34.3209 40.3083V40.4846C34.3164 42.5882 32.8079 43.9926 32.1289 44.558ZM39.6119 42.2842C39.4388 42.1079 39.457 41.5668 40.0494 39.8766C40.2773 39.2078 40.806 38.0831 41.7129 37.0192C41.8222 37.4569 41.886 37.8825 41.8769 38.2716C41.8633 40.898 40.4642 41.8768 39.6119 42.2842Z" fill="#CF649A"/>
<path fill-rule="evenodd" clip-rule="evenodd" d="M48.207 32.1554C46.2474 32.1676 44.5521 32.7999 43.1302 33.73C42.6061 32.3439 42.082 31.134 41.9909 30.2281C41.8906 29.1764 41.7721 28.538 41.8906 27.2795C42.0091 26.0271 42.556 24.2457 42.556 24.0998C42.5468 23.9661 42.4375 23.3277 41.3073 23.3095C40.1816 23.2973 39.2064 23.6013 39.097 23.9965C38.9876 24.3916 38.7689 25.2975 38.6276 26.2277C38.4316 27.6017 36.3763 32.4594 35.205 35.0129C34.8222 34.0219 34.4941 33.1464 34.4303 32.4472C34.3301 31.3954 34.2116 30.7571 34.33 29.4986C34.4485 28.2462 34.9954 26.4648 34.9954 26.3189C34.9863 26.1852 34.8769 25.5468 33.7467 25.5286C32.6211 25.5164 31.6458 25.8204 31.5364 26.2156C31.4271 26.6107 31.3086 27.5409 31.067 28.4468C30.8392 29.3527 28.1048 37.463 27.3939 39.5787C27.0338 40.6609 26.7148 41.5181 26.4869 42.1018C26.2591 42.6854 26.4778 42.1443 26.455 42.2051C26.2591 42.7037 26.1497 42.9773 26.1497 42.9773V42.9894C25.9948 43.3542 25.8307 43.7068 25.7578 43.7068C25.7031 43.7068 25.5937 42.728 25.7806 41.3844C26.1862 38.5695 27.1705 34.1739 27.1569 34.0158C27.1569 33.9428 27.3437 33.1707 26.5234 32.7755C25.7259 32.3804 25.4388 33.037 25.375 33.037C25.3112 33.037 25.2565 33.268 25.2565 33.268C25.2565 33.268 26.1406 28.3191 23.5612 28.3191C21.9433 28.3191 19.7103 30.6659 18.6074 32.812C17.9056 33.3227 16.4199 34.4049 14.8431 35.554C14.2415 35.9917 13.6172 36.4598 13.0293 36.8793L12.9108 36.703C9.77992 32.2709 3.99216 29.1216 4.23369 23.1392C4.32028 20.9627 4.88994 15.2296 15.3489 8.28656C23.9121 2.59597 30.7708 4.15845 31.9648 7.62995C33.6601 12.591 28.3008 21.8139 19.3958 23.1392C16.0052 23.6499 14.2233 21.899 13.7721 21.2424C13.3027 20.5554 13.2343 20.525 13.0612 20.6587C12.7786 20.8654 12.9518 21.4734 13.0612 21.8382C13.3255 22.7562 14.4192 24.3916 16.2786 25.2063C17.9101 25.9237 21.8886 26.3128 26.7011 23.8323C32.0924 21.0478 36.3034 13.3084 35.0683 6.84567C33.8105 0.273528 25.6302 -1.89084 17.8965 1.77521C13.2936 3.9639 8.30336 7.38068 4.71677 11.8614C0.451142 17.169 -0.227894 21.8078 0.0546577 23.735C1.04815 30.6112 8.14841 35.0858 10.9922 38.3992C10.8509 38.5026 10.7187 38.606 10.6002 38.6911C9.17836 39.6273 3.76429 43.4028 2.40622 47.4033C0.87497 51.9266 2.64776 55.1853 3.8281 55.623C7.48304 56.9788 11.2246 54.5408 13.248 50.5282C15.2623 46.5156 15.0208 41.3053 14.0911 38.9282L14.0592 38.8431L15.1758 37.9676C15.8958 37.3961 16.6067 36.8732 17.2311 36.4233C16.8802 37.694 16.6295 39.1957 16.4974 41.3844C16.3424 43.95 17.1308 47.2817 18.1699 48.5949C18.6302 49.1664 19.1771 49.1785 19.5143 49.1785C20.7174 49.1785 21.2643 47.8532 21.8659 46.2603C22.6087 44.3209 23.2649 42.0714 23.2649 42.0714C23.2649 42.0714 22.4446 48.1571 24.6868 48.1571C25.5071 48.1571 26.3274 46.7406 26.7011 46.011V46.0232C26.7011 46.0232 26.7239 45.9806 26.7649 45.8773C26.8105 45.7861 26.8561 45.6949 26.8971 45.5976V45.5672C27.2252 44.8072 27.959 43.0745 29.0527 40.1988C30.4655 36.4902 31.819 31.8514 31.819 31.8514C31.819 31.8514 31.9511 32.9883 32.3567 34.8548C32.5983 35.9613 33.1224 37.1772 33.528 38.3567C33.1998 38.9707 33.0039 39.3173 33.0039 39.3173L33.013 39.3294C32.7487 39.7976 32.457 40.29 32.1471 40.7886C31.0306 42.5699 29.6953 44.5944 29.5221 45.1781C29.3125 45.8651 29.358 46.3758 29.7636 46.7831C30.0599 47.075 30.584 47.1358 31.1399 47.075C32.1471 46.9898 32.8444 46.6494 33.1953 46.4488C33.7422 46.1873 34.3665 45.7921 34.9681 45.2085C36.0618 44.1263 36.7272 42.5942 36.6634 40.5515C36.6315 39.4267 36.358 38.3202 36.0162 37.2684C36.1165 37.08 36.2122 36.8915 36.3125 36.6848C38.0397 33.3166 39.375 29.608 39.375 29.608C39.375 29.608 39.5071 30.7449 39.9127 32.6114C40.1224 33.5598 40.5371 34.5934 40.9062 35.6148C39.2884 37.3779 38.2721 39.4206 37.9212 40.7642C37.2741 43.2448 37.7799 44.3695 38.7324 44.6309C39.1608 44.7464 39.7715 44.485 40.2317 44.2236C40.8014 43.9743 41.4896 43.5548 42.123 42.9225C43.2168 41.8404 44.2649 40.3387 44.2103 38.3141C44.1784 37.3779 43.9915 36.4598 43.7409 35.5844C45.1172 34.8244 46.9036 34.3867 49.164 34.7514C54.0312 35.5114 54.9928 39.5665 54.8105 41.2567C54.6237 42.9469 53.6074 43.8831 53.2702 44.175C52.9329 44.4546 52.8235 44.5519 52.8554 44.7586C52.901 45.0626 53.0514 45.0504 53.3476 44.9896C53.7532 44.9045 55.9088 43.6035 55.9954 40.4785C56.1276 36.4902 53.2702 32.1129 48.207 32.1554ZM10.6686 49.0387C9.05987 51.3855 6.79489 52.2792 5.8333 51.5192C4.79424 50.7167 5.19984 47.2574 7.1777 44.7647C8.38083 43.2448 9.94398 41.8464 10.9739 40.9831C11.2018 40.7946 11.5527 40.515 11.9674 40.1806C12.0312 40.1198 12.0768 40.0955 12.0768 40.0955C12.1543 40.0347 12.2409 39.9617 12.3274 39.8888C13.0612 43.4515 12.3639 46.5704 10.6686 49.0387ZM22.4264 38.3749C21.8704 40.1988 20.6855 44.8863 19.9746 44.6188C19.3639 44.3999 18.9902 40.8554 19.8561 37.3535C20.2936 35.5904 21.2233 33.4869 21.7702 32.6722C22.6543 31.359 23.6204 30.9212 23.8574 31.4623C24.1445 32.1554 22.7773 37.2319 22.4264 38.3749ZM32.1289 44.558C31.8873 44.716 31.6686 44.8376 31.5729 44.7464C31.4954 44.6856 31.6731 44.4668 31.6731 44.4668C31.6731 44.4668 32.8854 42.728 33.3685 41.9255C33.6419 41.4573 33.97 40.9162 34.3209 40.3083V40.4846C34.3164 42.5882 32.8079 43.9926 32.1289 44.558ZM39.6119 42.2842C39.4388 42.1079 39.457 41.5668 40.0494 39.8766C40.2773 39.2078 40.806 38.0831 41.7129 37.0192C41.8222 37.4569 41.886 37.8825 41.8769 38.2716C41.8633 40.898 40.4642 41.8768 39.6119 42.2842Z" fill="#E65100"/>
</g>
</g>
</g>
</svg>
