<svg width="56" height="56" viewBox="0 0 56 56" fill="none" xmlns="http://www.w3.org/2000/svg">
<g id="typescript" clip-path="url(#clip0_378_110)">
<rect id="Rectangle 1" x="1" y="1" width="54" height="54" fill="white"/>
<path id="Vector" d="M0.875 27.9606V55.3043H55.5625V0.616821H0.875V27.9606ZM44.9444 25.7731C46.2542 26.077 47.4447 26.7621 48.3656 27.7418C48.8726 28.2696 49.3134 28.8573 49.6781 29.4918C49.6781 29.5618 47.3156 31.1587 45.8763 32.0512C45.8237 32.0862 45.6138 31.8587 45.3819 31.5131C45.1191 31.0597 44.7458 30.6802 44.2967 30.4102C43.8476 30.1401 43.3374 29.9882 42.8138 29.9687C41.1556 29.8549 40.0881 30.7256 40.0969 32.1562C40.0832 32.5124 40.1647 32.8658 40.3331 33.1799C40.6963 33.9368 41.3744 34.3874 43.5006 35.3062C47.4163 36.9906 49.0919 38.1018 50.1331 39.6812C51.2969 41.4312 51.555 44.2574 50.7675 46.3487C49.8925 48.6237 47.7487 50.1681 44.7169 50.6799C43.3321 50.8386 41.933 50.8239 40.5519 50.6362C38.4441 50.2943 36.4997 49.2907 35 47.7706C34.4969 47.2149 33.5169 45.7668 33.5781 45.6618C33.7378 45.5433 33.906 45.4365 34.0812 45.3424L36.0938 44.1874L37.6644 43.2774L37.9925 43.7631C38.5463 44.5552 39.251 45.2302 40.0662 45.7493C41.8162 46.6681 44.205 46.5412 45.3862 45.4781C45.7829 45.0885 46.0303 44.5722 46.0854 44.019C46.1406 43.4658 46 42.9108 45.6881 42.4506C45.2506 41.8424 44.3756 41.3306 41.93 40.2631C39.1081 39.0468 37.8919 38.2943 36.7806 37.0956C36.0869 36.3045 35.5747 35.3712 35.28 34.3612C35.0602 33.2073 35.0277 32.0255 35.1838 30.8612C35.7656 28.1356 37.8088 26.2324 40.7925 25.6681C42.1743 25.4971 43.574 25.5354 44.9444 25.7818V25.7731ZM32.1081 28.0656V30.3056H25.0075V50.5312H19.9719V30.3012H12.8537V28.1137C12.8346 27.3606 12.8551 26.6071 12.915 25.8562C12.9412 25.8212 17.29 25.8037 22.54 25.8124H32.0819L32.1081 28.0656Z" fill="#E65100"/>
</g>
<defs>
<clipPath id="clip0_378_110">
<rect width="56" height="56" fill="white"/>
</clipPath>
</defs>
</svg>
